<svg width="1059" height="108" viewBox="0 0 1059 108" fill="none" xmlns="http://www.w3.org/2000/svg">
<g clip-path="url(#clip0)">
<rect width="259" height="108" fill="black" fill-opacity="0"/>
<path d="M258.848 108.064C166.848 108.064 74.3482 108.064 1.34823 108.064C-3.15178 108.064 3.34824 83.0642 24.8483 84.5642C24.8483 65.7142 52.3482 51.0642 71.8482 57.0642C75.8482 49.0642 81.0797 37.0642 101.848 37.0642C109.348 -7.43576 192.348 -22.9358 193.848 54.0642C214.348 47.5643 232.848 59.5642 233.848 82.5642C246.848 85.5642 254.848 88.0642 258.848 108.064Z" fill="white"/>
<path d="M178.348 97.5642C196.848 92.5642 198.848 108.064 198.848 108.064C198.848 108.064 68.3482 108.064 43.8482 108.064C43.8482 103.064 49.8482 89.0642 65.8482 94.0642C65.8482 78.0642 81.9345 72.5642 87.8482 72.5642C103.348 24.5642 158.348 46.5642 158.348 79.0642C166.348 79.0642 178.348 91.4032 178.348 97.5642Z" fill="#EBF6F8"/>
</g>
<defs>
<clipPath id="clip0">
<rect width="259" height="108" fill="white"/>
</clipPath>
</defs>
</svg>
