<svg width="339" height="145" viewBox="0 0 339 145" fill="none" xmlns="http://www.w3.org/2000/svg">
<g clip-path="url(#clip0)">
<rect width="339" height="145" fill="black" fill-opacity="0"/>
<path d="M339.04 142.002C254.54 149.002 0.0400585 142.502 0.0400585 142.502C0.0400585 142.502 -2.45996 111.502 32.0401 109.838C32.0401 57.0016 81.54 68.0016 83.54 71.0016C69.54 11.5016 173.04 -41.4984 205.04 47.0017C221.614 47.0017 239.54 57.0016 245.04 76.0016C273.54 69.5016 294.04 79.5016 307.04 111.002C332.04 108.502 339.04 131.214 339.04 142.002Z" fill="white"/>
<path d="M203.04 108.502C229.54 93.5016 245.54 111.502 248.04 120.002C267.54 116.502 274.04 122.502 279.04 131.502C292.54 132.502 292.54 139.502 292.54 144.502C253.54 146.002 94.54 145.502 46.54 143.502C46.54 133.34 54.04 127.502 61.04 127.502C63.04 121.502 67.3813 104.002 88.54 104.002C88.54 76.5016 113.54 59.0016 140.04 81.5016C151.54 65.0016 182.04 67.0016 180.04 93.0016C194.031 93.4163 201.04 101.002 203.04 108.502Z" fill="#EBF6F8"/>
</g>
<defs>
<clipPath id="clip0">
<rect width="339" height="145" fill="white"/>
</clipPath>
</defs>
</svg>
