<svg width="276" height="103" viewBox="0 0 276 103" fill="none" xmlns="http://www.w3.org/2000/svg">
<g clip-path="url(#clip0)">
<rect width="276" height="103" fill="black" fill-opacity="0"/>
<path d="M275.5 101.075C234 103.531 34.5 102.031 0 102.531C9.00416e-06 83.1378 26 75.0312 40 87.0312C53 69.0312 63.5 64.0312 80.5 69.0312C83.5 54.5312 100.5 40.5312 113 40.5312C117 -16.4688 194.5 -10.4688 198.5 40.5312C218.688 40.5312 232 58.5312 232 73.5312C257.5 61.5312 275.5 88.7906 275.5 101.075Z" fill="white"/>
<path d="M220 102.531C194 104.031 100.397 102.531 83 102.531C81 77.5312 104 72.5312 120.5 77.0312C120.5 55.5312 173 29.0312 189 83.5312C206.397 83.5312 220 87.3434 220 102.531Z" fill="#EBF6F8"/>
</g>
<defs>
<clipPath id="clip0">
<rect width="276" height="103" fill="white"/>
</clipPath>
</defs>
</svg>
